<svg xmlns="http://www.w3.org/2000/svg" viewBox="0 0 512 512">
  <defs>
    <linearGradient id="gradient" x1="0%" y1="0%" x2="100%" y2="100%">
      <stop offset="0%" style="stop-color:#6366f1"/>
      <stop offset="100%" style="stop-color:#d946ef"/>
    </linearGradient>
  </defs>
  <rect width="512" height="512" rx="96" fill="url(#gradient)"/>
  <g fill="white">
    <!-- Cloud -->
    <path d="M352 224c0-44.2-35.8-80-80-80-32.4 0-60.3 19.3-72.8 47-8.4-5.8-18.6-9-29.6-9-28.7 0-52 23.3-52 52 0 2.7.2 5.4.6 8-25.6 7.5-44.2 31.3-44.2 59 0 33.1 26.9 60 60 60h200c44.2 0 80-35.8 80-80 0-35.3-22.9-65.3-54.6-75.8 .4-5.3.6-10.7.6-16.2z" transform="translate(0, -20)"/>
    <!-- Arrow -->
    <path d="M256 280v120M256 400l-40-40M256 400l40-40" stroke="white" stroke-width="32" stroke-linecap="round" stroke-linejoin="round" fill="none"/>
  </g>
</svg>
